<?xml version="1.0"?>
<svg width="50" height="50" xmlns="http://www.w3.org/2000/svg" xmlns:svg="http://www.w3.org/2000/svg">
 <g class="layer">
  <title>Layer 1</title>
  <circle cx="24" cy="24" fill="#fff" id="svg_1" r="24" transform="translate(1 1)"/>
  <path d="m87.46,22.89l-1.37,1.38a19.43,19.43 0 0 1 0,26.23l1.37,1.37a21.4,21.4 0 0 0 0,-29.01l0,0.03z" fill="#5a5564" id="svg_2" transform="translate(-46.693 -12.399)"/>
  <path d="m24.34,14.85a19.43,19.43 0 0 1 26.23,0l1.37,-1.37a21.4,21.4 0 0 0 -29.01,0l1.41,1.37z" fill="#5a5564" id="svg_3" transform="translate(-12.437 -4.235)"/>
  <path d="m14.85,50.58a19.43,19.43 0 0 1 0,-26.22l-1.38,-1.37a21.4,21.4 0 0 0 0,29.01l1.38,-1.42z" fill="#5a5564" id="svg_4" transform="translate(-4.235 -12.469)"/>
  <path d="m50.56,86.05a19.43,19.43 0 0 1 -26.23,0l-1.37,1.37a21.4,21.4 0 0 0 29.01,0l-1.41,-1.37z" fill="#5a5564" id="svg_5" transform="translate(-12.453 -46.671)"/>
  <path d="m25,50a25,25 0 1 1 25,-25a25,25 0 0 1 -25,25zm0,-48.05a23.04,23.04 0 1 0 16.3,6.74a23.04,23.04 0 0 0 -16.3,-6.74z" fill="#282138" id="svg_7" transform="translate(0 0)"/>
 </g>
</svg>